<svg width="978" height="306" viewBox="0 0 978 306" fill="none" xmlns="http://www.w3.org/2000/svg">
<g filter="url(#filter0_d)">
<mask id="mask0" mask-type="alpha" maskUnits="userSpaceOnUse" x="41" y="70" width="896" height="166">
<path d="M224.247 110.823C229.047 118.252 236.501 124.231 245.345 124.231V124.231C247.906 124.231 249.839 121.891 249.174 119.418C241.652 91.463 216.988 72.6368 185.402 72.6368C144.853 72.6368 116.199 103.84 116.199 153.889C116.199 203.938 144.622 235.142 186.638 235.142C224.329 235.142 251.208 210.04 251.208 170.881V158.889C251.208 156.128 248.969 153.889 246.208 153.889H193.795C192.231 153.889 190.963 155.157 190.963 156.721V156.721C190.963 164.542 197.303 170.881 205.123 170.881H232.671C232.13 199.304 213.439 217.223 186.638 217.223C157.288 217.223 134.735 194.979 134.735 153.889C134.735 112.8 157.288 90.5556 185.402 90.5556C202.832 90.5556 215.997 98.0529 224.247 110.823Z" fill="url(#paint0_linear)"/>
<path d="M278.02 77.8374C278.02 76.1596 276.66 74.7994 274.982 74.7994V74.7994C266.593 74.7994 259.792 81.6001 259.792 89.9892V229.941C259.792 231.619 261.153 232.979 262.83 232.979V232.979C271.219 232.979 278.02 226.179 278.02 217.789V77.8374Z" fill="url(#paint1_linear)"/>
<path d="M324.567 235.76C345.266 235.76 356.079 224.638 359.786 216.914H360.713V217.789C360.713 226.179 367.514 232.979 375.903 232.979V232.979C377.581 232.979 378.941 231.619 378.941 229.941V154.816C378.941 117.125 350.209 112.8 335.071 112.8C318.054 112.8 298.807 118.372 288.975 137.456C288.113 139.13 288.992 141.14 290.765 141.773V141.773C298.713 144.612 307.337 140.387 314.12 135.365C319.28 131.544 326.346 128.865 335.689 128.865C352.449 128.865 360.713 137.747 360.713 152.962V153.58C360.713 162.385 351.754 161.613 330.128 164.393C308.115 167.251 284.095 172.117 284.095 199.304C284.095 222.475 302.014 235.76 324.567 235.76ZM327.347 219.386C312.827 219.386 302.323 212.898 302.323 200.231C302.323 186.329 314.989 182.003 329.201 180.15C336.924 179.223 357.624 177.06 360.713 173.353V190.036C360.713 204.865 348.973 219.386 327.347 219.386Z" fill="url(#paint2_linear)"/>
<path d="M471.419 141.784C473.091 141.311 474.034 139.528 473.377 137.92C467.188 122.753 454.536 112.8 432.477 112.8C407.453 112.8 388.916 127.011 388.916 147.093C388.916 163.467 398.648 174.434 420.428 179.532L440.201 184.166C452.172 186.946 457.811 192.662 457.811 200.849C457.811 211.044 446.998 219.386 430.006 219.386C421.398 219.386 414.645 217.248 409.85 212.988C403.673 207.501 396.03 201.851 388.014 203.855V203.855C386.448 204.246 385.461 205.815 385.898 207.368C391.053 225.712 407.216 235.451 430.315 235.451C457.888 235.451 476.656 220.39 476.656 199.922C476.656 183.394 466.307 172.967 445.144 167.792L427.534 163.467C413.477 159.991 407.144 155.28 407.144 146.166C407.144 135.971 417.957 128.556 432.477 128.556C440.657 128.556 446.366 130.883 450.414 134.256C456.431 139.272 463.882 143.917 471.419 141.784V141.784Z" fill="url(#paint3_linear)"/>
<path d="M563.303 141.784C564.975 141.311 565.918 139.528 565.261 137.92C559.072 122.753 546.42 112.8 524.361 112.8C499.337 112.8 480.8 127.011 480.8 147.093C480.8 163.467 490.532 174.434 512.312 179.532L532.085 184.166C544.057 186.946 549.695 192.662 549.695 200.849C549.695 211.044 538.882 219.386 521.89 219.386C513.282 219.386 506.529 217.248 501.734 212.988C495.557 207.501 487.914 201.851 479.898 203.855V203.855C478.332 204.246 477.345 205.815 477.782 207.368C482.937 225.712 499.1 235.451 522.199 235.451C549.772 235.451 568.54 220.39 568.54 199.922C568.54 183.394 558.191 172.967 537.028 167.792L519.418 163.467C505.361 159.991 499.028 155.28 499.028 146.166C499.028 135.971 509.841 128.556 524.361 128.556C532.541 128.556 538.25 130.883 542.298 134.256C548.315 139.272 555.766 143.917 563.303 141.784V141.784Z" fill="url(#paint4_linear)"/>
<path d="M622.424 235.451C646.936 235.451 663.641 221.454 668.27 202.506C668.796 200.352 667.085 198.377 664.868 198.377V198.377C656.608 198.377 649.901 204.578 644.188 210.545C638.939 216.029 631.352 219.077 622.424 219.077C600.798 219.077 586.896 201.158 586.896 173.662C586.896 146.784 601.107 129.174 622.424 129.174C631.942 129.174 639.183 132.644 644.082 137.721C649.829 143.677 656.633 149.873 664.909 149.873V149.873C667.111 149.873 668.817 147.922 668.311 145.779C663.599 125.828 645.571 112.8 622.115 112.8C589.985 112.8 568.668 138.133 568.668 174.28C568.668 209.808 589.058 235.451 622.424 235.451Z" fill="url(#paint5_linear)"/>
<path d="M722.167 235.451C754.297 235.451 775.924 211.044 775.924 174.28C775.924 137.206 754.297 112.8 722.167 112.8C690.037 112.8 668.411 137.206 668.411 174.28C668.411 211.044 690.037 235.451 722.167 235.451ZM722.167 219.077C697.761 219.077 686.639 198.068 686.639 174.28C686.639 150.491 697.761 129.174 722.167 129.174C746.574 129.174 757.696 150.491 757.696 174.28C757.696 198.068 746.574 219.077 722.167 219.077Z" fill="url(#paint6_linear)"/>
<path d="M781.998 229.941C781.998 231.619 783.358 232.979 785.036 232.979V232.979C793.425 232.979 800.226 226.179 800.226 217.789V157.906C800.226 141.84 812.893 130.101 830.194 130.101V130.101C835.888 130.101 841.316 125.82 841.316 120.126V115.147C841.316 113.824 840.295 112.728 838.972 112.671C836.659 112.569 833.668 112.491 831.738 112.491C817.527 112.491 805.169 120.523 800.844 132.263H799.608V129.019C799.608 120.915 793.038 114.344 784.933 114.344V114.344C783.312 114.344 781.998 115.658 781.998 117.279V229.941Z" fill="url(#paint7_linear)"/>
<path d="M882.359 235.451C905.221 235.451 912.945 221.239 916.961 214.751H919.123V218.304C919.123 226.409 925.694 232.979 933.798 232.979V232.979C935.419 232.979 936.733 231.665 936.733 230.044V77.8374C936.733 76.1596 935.373 74.7994 933.695 74.7994V74.7994C925.306 74.7994 918.506 81.6001 918.506 89.9892V133.19H916.961C912.945 127.011 905.839 112.8 882.668 112.8C852.7 112.8 832.001 136.588 832.001 173.971C832.001 211.662 852.7 235.451 882.359 235.451ZM884.831 219.077C861.969 219.077 850.229 198.995 850.229 173.662C850.229 148.637 861.66 129.174 884.831 129.174C907.075 129.174 918.815 147.093 918.815 173.662C918.815 200.54 906.766 219.077 884.831 219.077Z" fill="url(#paint8_linear)"/>
<path fill-rule="evenodd" clip-rule="evenodd" d="M60.6156 228.448C66.4548 228.448 71.1884 223.714 71.1884 217.875C71.1884 212.036 66.4548 207.302 60.6156 207.302C54.7764 207.302 50.0428 212.036 50.0428 217.875C50.0428 223.714 54.7764 228.448 60.6156 228.448ZM60.6156 236C70.6256 236 78.7404 227.885 78.7404 217.875C78.7404 207.865 70.6256 199.75 60.6156 199.75C50.6056 199.75 42.4908 207.865 42.4908 217.875C42.4908 227.885 50.6056 236 60.6156 236Z" fill="#D82FFD"/>
<path fill-rule="evenodd" clip-rule="evenodd" d="M80.7796 70.2201C81.7227 70.557 82.4934 71.2547 82.922 72.1598L86.3212 79.3372L100.753 72.5025C102.637 71.6099 104.889 72.4142 105.782 74.2989C106.674 76.1837 105.87 78.4351 103.985 79.3278L89.5536 86.1625L94.3459 96.2813L108.777 89.4466C110.662 88.554 112.914 89.3582 113.806 91.243C114.699 93.1277 113.894 95.3792 112.01 96.2718L97.5783 103.107L100.978 110.284C101.87 112.169 101.066 114.42 99.1811 115.313L97.5649 111.9C99.1811 115.313 99.1775 115.314 99.1775 115.314L99.1735 115.316L99.1641 115.321L99.14 115.332L99.0709 115.364C99.0156 115.389 98.9421 115.422 98.8511 115.461C98.6692 115.54 98.4172 115.645 98.1021 115.767C97.4732 116.012 96.5862 116.326 95.4996 116.634C93.3437 117.244 90.3086 117.851 86.8955 117.766C83.4651 117.681 79.5799 116.892 75.8585 114.638C72.1146 112.37 68.7676 108.759 66.2308 103.402C63.694 98.0458 63.0204 93.1681 63.6382 88.8348C64.2523 84.5276 66.1036 81.0219 68.211 78.3138C70.3077 75.6194 72.7007 73.6561 74.5386 72.3746C75.4649 71.7287 76.2705 71.2419 76.8579 70.9101C77.1521 70.7438 77.3933 70.6156 77.5694 70.5248C77.6575 70.4793 77.7295 70.4432 77.7839 70.4164L77.8522 70.383L77.8762 70.3715L77.8856 70.367L77.8896 70.3651C77.8896 70.3651 77.8932 70.3634 79.5094 73.776L77.8932 70.3634C78.7983 69.9347 79.8366 69.8832 80.7796 70.2201Z" fill="#D82FFD"/>
<path fill-rule="evenodd" clip-rule="evenodd" d="M69.3283 192.927C68.74 197.452 66.6281 201.565 62.5917 205.056L58.6395 200.486C61.5887 197.936 62.9459 195.157 63.3371 192.148C63.7421 189.032 63.1365 185.45 61.7249 181.361C60.317 177.282 58.1894 172.925 55.764 168.307C54.9579 166.772 54.113 165.197 53.2557 163.599C51.578 160.473 49.8531 157.258 48.2796 154.08C43.5557 144.537 39.5474 134.126 41.5102 124.233C43.5409 113.997 51.6768 105.366 68.5785 98.7611L70.7776 104.388C54.8282 110.621 48.8984 118.039 47.4363 125.408C45.9063 133.12 48.978 141.873 53.694 151.399C55.2269 154.495 56.8643 157.546 58.5107 160.614C59.3803 162.234 60.2525 163.859 61.113 165.498C63.561 170.16 65.8702 174.854 67.4358 179.389C68.9978 183.914 69.9026 188.509 69.3283 192.927Z" fill="#D82FFD"/>
</mask>
<g mask="url(#mask0)">
<rect width="978" height="306" fill="url(#paint9_linear)"/>
</g>
</g>
<defs>
<filter id="filter0_d" x="31" y="64" width="915.733" height="186" filterUnits="userSpaceOnUse" color-interpolation-filters="sRGB">
<feFlood flood-opacity="0" result="BackgroundImageFix"/>
<feColorMatrix in="SourceAlpha" type="matrix" values="0 0 0 0 0 0 0 0 0 0 0 0 0 0 0 0 0 0 127 0"/>
<feOffset dy="4"/>
<feGaussianBlur stdDeviation="5"/>
<feColorMatrix type="matrix" values="0 0 0 0 0 0 0 0 0 0 0 0 0 0 0 0 0 0 0.2 0"/>
<feBlend mode="normal" in2="BackgroundImageFix" result="effect1_dropShadow"/>
<feBlend mode="normal" in="SourceGraphic" in2="effect1_dropShadow" result="shape"/>
</filter>
<linearGradient id="paint0_linear" x1="936.646" y1="236" x2="116.5" y2="72.877" gradientUnits="userSpaceOnUse">
<stop stop-color="#9645FB"/>
<stop offset="1" stop-color="#DD2DFD"/>
</linearGradient>
<linearGradient id="paint1_linear" x1="936.646" y1="236" x2="116.5" y2="72.877" gradientUnits="userSpaceOnUse">
<stop stop-color="#9645FB"/>
<stop offset="1" stop-color="#DD2DFD"/>
</linearGradient>
<linearGradient id="paint2_linear" x1="936.646" y1="236" x2="116.5" y2="72.877" gradientUnits="userSpaceOnUse">
<stop stop-color="#9645FB"/>
<stop offset="1" stop-color="#DD2DFD"/>
</linearGradient>
<linearGradient id="paint3_linear" x1="936.646" y1="236" x2="116.5" y2="72.877" gradientUnits="userSpaceOnUse">
<stop stop-color="#9645FB"/>
<stop offset="1" stop-color="#DD2DFD"/>
</linearGradient>
<linearGradient id="paint4_linear" x1="936.646" y1="236" x2="116.5" y2="72.877" gradientUnits="userSpaceOnUse">
<stop stop-color="#9645FB"/>
<stop offset="1" stop-color="#DD2DFD"/>
</linearGradient>
<linearGradient id="paint5_linear" x1="936.646" y1="236" x2="116.5" y2="72.877" gradientUnits="userSpaceOnUse">
<stop stop-color="#9645FB"/>
<stop offset="1" stop-color="#DD2DFD"/>
</linearGradient>
<linearGradient id="paint6_linear" x1="936.646" y1="236" x2="116.5" y2="72.877" gradientUnits="userSpaceOnUse">
<stop stop-color="#9645FB"/>
<stop offset="1" stop-color="#DD2DFD"/>
</linearGradient>
<linearGradient id="paint7_linear" x1="936.646" y1="236" x2="116.5" y2="72.877" gradientUnits="userSpaceOnUse">
<stop stop-color="#9645FB"/>
<stop offset="1" stop-color="#DD2DFD"/>
</linearGradient>
<linearGradient id="paint8_linear" x1="936.646" y1="236" x2="116.5" y2="72.877" gradientUnits="userSpaceOnUse">
<stop stop-color="#9645FB"/>
<stop offset="1" stop-color="#DD2DFD"/>
</linearGradient>
<linearGradient id="paint9_linear" x1="978" y1="306" x2="803.589" y2="-251.43" gradientUnits="userSpaceOnUse">
<stop stop-color="#9645FB"/>
<stop offset="1" stop-color="#DD2DFD"/>
</linearGradient>
</defs>
</svg>
